<?xml version="1.0" encoding="UTF-8" standalone="no"?>
<!DOCTYPE svg PUBLIC "-//W3C//DTD SVG 1.1//EN" "http://www.w3.org/Graphics/SVG/1.1/DTD/svg11.dtd">
<svg width="100%" height="100%" viewBox="0 0 700 700" version="1.1" xmlns="http://www.w3.org/2000/svg" xmlns:xlink="http://www.w3.org/1999/xlink" xml:space="preserve" xmlns:serif="http://www.serif.com/" style="fill-rule:evenodd;clip-rule:evenodd;stroke-linejoin:round;stroke-miterlimit:2;">
    <g transform="matrix(0.740681,0.311394,-0.311394,0.740681,177.955,140.518)">
        <path d="M316.4,39.203L299.599,97.652C284.392,101.84 270.138,107.871 256.724,115.504L203.525,85.93L155.923,133.532L185.497,186.731C177.864,200.145 171.837,214.399 167.645,229.606L109.196,246.407L109.196,313.606L167.645,330.407C171.832,345.614 177.864,359.868 185.497,373.282L155.923,426.481L203.525,474.083L256.724,444.509C270.138,452.142 284.392,458.169 299.599,462.361L316.4,520.81L383.599,520.81L400.4,462.361C415.607,458.173 429.861,452.142 443.275,444.509L496.474,474.083L544.076,426.481L514.502,373.282C522.135,359.868 528.162,345.614 532.354,330.407L590.803,313.606L590.803,246.407L532.354,229.606C528.167,214.399 522.135,200.145 514.502,186.731L544.076,133.532L496.474,85.93L443.275,115.504C429.861,107.871 415.607,101.844 400.4,97.652L383.599,39.203L316.4,39.203ZM350.002,168.003C411.857,168.003 462.002,218.148 462.002,280.003C462.002,341.858 411.857,392.003 350.002,392.003C288.147,392.003 238.002,341.858 238.002,280.003C238.002,218.148 288.147,168.003 350.002,168.003Z" style="fill:rgb(0,95,219);fill-rule:nonzero;"/>
    </g>
    <path d="M182.078,457.298C182.057,453.026 182.202,448.739 182.519,444.44L141.843,411.688L172.067,339.795L223.929,345.947C229.074,340.11 234.579,334.702 240.417,329.7L234.713,277.766L307.055,248.248C307.055,248.248 339.312,289.346 339.311,289.347C346.984,288.836 354.701,288.847 362.462,289.42L395.214,248.743L467.106,278.968L460.954,330.829C466.792,335.975 472.199,341.479 477.201,347.318L529.136,341.614L558.654,413.956C558.654,413.956 517.555,446.213 517.555,446.212C517.8,449.897 517.925,453.592 517.925,457.298L556.238,457.298C626.485,457.298 683.635,397.872 683.635,324.821C683.635,291.182 671.493,259.119 649.443,234.533C629.575,212.378 603.359,198.126 574.833,193.788C571.998,162.744 558.837,133.957 537.225,111.908C513.278,87.476 481.609,74.022 448.047,74.022C418.43,74.022 390.278,84.51 367.599,103.788C340.057,71.835 301.33,53.739 259.638,53.739C182.48,53.739 119.141,116.712 114.664,195.847C88.458,202.228 64.693,217.209 47.006,238.654C27.249,262.615 16.366,293.218 16.366,324.825C16.366,397.869 73.515,457.301 143.762,457.301L143.778,457.298L182.078,457.298ZM275.929,457.298C275.872,447.587 277.735,437.71 281.734,428.198C297.585,390.494 341.001,372.779 378.705,388.63C407.156,400.591 424.226,428.249 424.079,457.298L275.929,457.298Z" style="fill:rgb(0,95,219);fill-rule:nonzero;"/>
</svg>
